Title                            : Remember Me
Year                             : 2010
Genre                            : Drama | Romance
iMDB URL                         : http://www.imdb.com/title/tt1403981/

Complete name                    : Remember.Me.2010.BRRIP.720P.H264-ZEKTORM.mp4
Format                           : MPEG-4
Format profile                   : Base Media
Codec ID                         : isom
File size                        : 1.95 GiB
Duration                         : 1h 52mn
Overall bit rate                 : 2488 Kbps
Subtitles                        : English (Format: srt)

Video
ID                               : 1
Format                           : AVC
Format/Info                      : Advanced Video Codec
Format profile                   : High@L4.0
Format settings, CABAC           : Yes
Format settings, ReFrames        : 4 frames
Codec ID                         : avc1
Codec ID/Info                    : Advanced Video Coding
Duration                         : 1h 52mn
Bit rate mode                    : Variable
Bit rate                         : 2200 Kbps
Width                            : 1280 pixels
Height                           : 720 pixels
Display aspect ratio             : 16/9
Frame rate mode                  : Constant
Frame rate                       : 23.976 fps
Resolution                       : 24 bits
Colorimetry                      : 4:2:0
Scan type                        : Progressive
Bits/(Pixel*Frame)               : 0.100
Stream size                      : 1.72 GiB (88%)
Title                            : Video
Writing library                  : x264

Audio #1
ID                               : 2
Format                           : AAC
Format/Info                      : Advanced Audio Codec
Format version                   : Version 4
Format profile                   : LC
Format settings, SBR             : Yes
Format settings, PS              : No
Codec ID                         : 40
Duration                         : 1h 52mn
Bit rate mode                    : Variable
Bit rate                         : 209 Kbps
Maximum bit rate                 : 249 Kbps
Channel(s)                       : 6 channels
Channel positions                : Front: L C R, Rear: L R, LFE
Sampling rate                    : 48.0 KHz
Resolution                       : 16 bits
Stream size                      : 168 MiB (8%)
Title                            : English
Language                         : English

Audio #2
ID                               : 3
Format                           : AAC
Format/Info                      : Advanced Audio Codec
Format version                   : Version 4
Format profile                   : LC
Format settings, SBR             : Yes
Format settings, PS              : No
Codec ID                         : 40
Duration                         : 1h 52mn
Bit rate mode                    : Variable
Bit rate                         : 77.2 Kbps
Maximum bit rate                 : 103 Kbps
Channel(s)                       : 2 channels
Channel positions                : L R
Sampling rate                    : 48.0 KHz
Resolution                       : 16 bits
Stream size                      : 62.1 MiB (3%)
Language                         : English
